<svg width="583" height="359" viewBox="0 0 583 359" fill="none" xmlns="http://www.w3.org/2000/svg">
<path d="M220.121 62.6758C220.121 52.2392 228.582 43.7787 239.018 43.7787H294.954C305.39 43.7787 313.851 52.2392 313.851 62.6758V124.658C313.851 135.095 305.39 143.555 294.954 143.555H239.018C228.582 143.555 220.121 135.095 220.121 124.658V62.6758Z" fill="#F7CE2C"/>
<path d="M169.815 141.555C161.83 134.835 160.805 122.914 167.525 114.929L218.419 54.4573C225.14 46.4724 237.061 45.4472 245.046 52.1675L292.468 92.0794C300.453 98.7998 301.478 110.721 294.758 118.706L243.863 179.177C237.143 187.162 225.222 188.187 217.237 181.467L169.815 141.555Z" fill="#F7CE2C"/>
<path d="M311.961 58.1405L437.438 185.885C448.398 194.199 468.051 223.225 458.981 272.811C447.642 334.794 375.455 364.273 336.905 358.226C304.897 353.205 287.773 356.336 258.293 312.873C234.71 278.103 188.248 181.979 167.965 138.264L311.961 60.7861V58.1405Z" fill="#F7CE2C"/>
<path d="M381.536 128.816C381.536 128.816 305.569 44.5346 309.727 51.7155C313.884 58.8963 164.975 131.839 164.219 132.973C163.463 134.107 198.99 202.514 198.99 202.514L381.536 128.816Z" fill="#F7CE2C"/>
<path d="M163.841 222.545L200.879 203.27L223.178 210.829L172.912 239.552L163.841 222.545Z" fill="#D9D9D9"/>
<path d="M370.197 121.257L407.236 101.982L429.534 109.541L379.268 138.264L370.197 121.257Z" fill="#D9D9D9"/>
<path d="M145.7 187.396L174.802 237.285C180.849 246.481 193.17 265.782 194.077 269.41C194.984 273.038 192.691 276.465 191.431 277.725C153.889 297.629 76.2343 339.329 65.9543 346.888C55.6743 354.447 50.0808 351.045 48.569 348.4C35.467 326.101 7.97807 279.388 2.83806 270.922C-2.30194 262.456 0.696394 257.568 2.83806 256.182C43.1518 235.143 125.669 191.932 133.228 187.396C140.787 182.861 144.692 185.507 145.7 187.396Z" fill="#1A7FC2"/>
<path d="M385.315 62.2978L457.502 25.2595C467.454 20.4723 489.703 9.38597 499.076 3.3389C508.448 -2.70817 514.319 0.819287 516.083 3.3389C533.468 21.6061 570.204 59.8034 578.065 66.4552C585.927 73.1069 581.341 79.0532 578.065 81.1949C544.177 97.1944 473.98 131.159 464.305 139.02C454.63 146.881 447.172 145.571 444.652 143.933C425.629 124.154 386.222 82.8578 380.78 75.9037C375.337 68.9496 381.536 63.9356 385.315 62.2978Z" fill="#1A7FC2"/>
<path d="M439.285 210.356C463.759 253.751 446.791 309.689 401.386 335.298C355.98 360.907 299.331 346.489 274.856 303.094C250.381 259.699 267.35 203.761 312.755 178.152C358.161 152.543 414.81 166.962 439.285 210.356Z" fill="#B4A050"/>
<path d="M258.944 247.416C261.061 218.995 292.329 191.985 307.699 182.032C326.994 207.556 356.178 247.254 378.017 279.507C360.102 245.322 338.747 201.628 325.084 172.961C351.414 164.647 410.725 157.466 437.333 195.26C470.591 242.503 444.891 292.769 444.136 293.525C443.38 294.281 417.302 327.162 409.743 330.941C409.245 331.19 408.431 330.694 407.341 329.544C407.664 330.985 407.598 331.975 407.097 332.453C398.782 340.39 376.484 346.059 351.54 350.216C326.596 354.373 294.848 344.547 275.196 319.981C255.543 295.415 256.298 282.943 258.944 247.416Z" fill="#B4A050"/>
<path d="M393.63 226.702C393.63 240.479 382.462 251.647 368.686 251.647C354.909 251.647 343.741 240.479 343.741 226.702C343.741 212.926 354.909 201.758 368.686 201.758C382.462 201.758 393.63 212.926 393.63 226.702Z" fill="#3B5A88"/>
<path d="M420.842 278.858C420.842 292.635 409.674 303.803 395.897 303.803C382.121 303.803 370.953 292.635 370.953 278.858C370.953 265.082 382.121 253.914 395.897 253.914C409.674 253.914 420.842 265.082 420.842 278.858Z" fill="#3B5A88"/>
<path d="M370.953 303.803C370.953 317.579 359.785 328.747 346.009 328.747C332.233 328.747 321.065 317.579 321.065 303.803C321.065 290.026 332.233 278.858 346.009 278.858C359.785 278.858 370.953 290.026 370.953 303.803Z" fill="#167EC4"/>
<path d="M340.718 253.914C340.718 267.691 329.55 278.858 315.774 278.858C301.997 278.858 290.83 267.691 290.83 253.914C290.83 240.138 301.997 228.97 315.774 228.97C329.55 228.97 340.718 240.138 340.718 253.914Z" fill="#167EC4"/>
</svg>
