<svg width="1004" height="749" viewBox="0 0 1004 749" fill="none" xmlns="http://www.w3.org/2000/svg">
<path d="M289 323.5V330C308.333 357.167 349 413.4 357 421C365 428.6 404.667 476.5 423.5 499.5L458 541C483.167 445.5 532.5 254.3 528.5 253.5C524.5 252.7 390.167 276.167 323.5 288L289 323.5Z" fill="#D0B26E" stroke="#D0B26E" stroke-width="4"/>
<path d="M476 271C467.5 313.167 450.5 401.2 450.5 416C450.5 434.5 589.5 301.5 625.5 302.5C654.3 303.3 665.5 304.5 667.5 305L637.5 248L613.5 229.5L476 271Z" fill="#D5B66E" stroke="#D5B66E" stroke-width="4"/>
<path d="M463 519.5C464.333 535 468.2 570.4 473 588C479 610 486.5 624.5 509.5 639C532.5 653.5 583 661.5 605 662C627 662.5 682 641 716 610C750 579 777.5 553.5 782.5 544C787.5 534.5 810.5 497.5 811.5 473C812.5 448.5 822.5 412.5 808.5 390.5C794.5 368.5 796 353.5 772.5 340.5C749 327.5 730.5 320.5 716.5 318C702.5 315.5 668 311.5 653 318C638 324.5 520.5 369.5 503.5 414C486.5 458.5 459.689 489 463 519.5Z" fill="#D5B66E" stroke="#D5B66E" stroke-width="4"/>
<path d="M466 558C465.833 563.333 466.2 575.3 469 580.5" stroke="#D5B66E" stroke-width="4"/>
<path d="M658 317.5C673.333 323.167 705.4 342.7 711 375.5C718 416.5 715 473.5 658 507.5C601 541.5 578.5 567 542.5 565C506.5 563 465 532.5 464 512.5C463 492.5 488.5 385.5 511 364C529 346.8 587.167 331.5 614 326L658 317.5Z" fill="#6B6A6A" stroke="#6B6A6A" stroke-width="4"/>
<path d="M595.5 530C589.5 553 586 555.5 595.5 570C605 584.5 596.5 585.5 608 585.5C619.5 585.5 644.5 577.5 647.5 572.5C649.9 568.5 657.167 548.833 660.5 539.5L653.5 520L632 511L595.5 530Z" fill="#6B6A6A"/>
<path d="M710.5 511C703.5 517.5 689.2 532.3 688 539.5C686.5 548.5 686.5 569 691.5 572.5C696.5 576 717 577.5 721.5 575C725.1 573 738.333 560.5 744.5 554.5L754 530V517L747.5 508L736 504L721.5 508L710.5 511Z" fill="#6B6A6A"/>
<path d="M595.5 530C589.5 553 586 555.5 595.5 570C605 584.5 596.5 585.5 608 585.5C619.5 585.5 644.5 577.5 647.5 572.5C649.9 568.5 657.167 548.833 660.5 539.5L653.5 520L632 511L595.5 530Z" stroke="#6B6A6A" stroke-width="8"/>
<path d="M710.5 511C703.5 517.5 689.2 532.3 688 539.5C686.5 548.5 686.5 569 691.5 572.5C696.5 576 717 577.5 721.5 575C725.1 573 738.333 560.5 744.5 554.5L754 530V517L747.5 508L736 504L721.5 508L710.5 511Z" stroke="#6B6A6A" stroke-width="8"/>
<path d="M615.5 483C617.333 489 625.8 503.1 645 511.5C646.434 512.128 647.765 512.775 649 513.439L626 516.5C615.5 521.167 593.7 533.7 590.5 546.5C587.3 559.3 589.167 569.5 590.5 573L555 516.5V500L596.5 464L606.5 469.5L646.5 508L615.5 483Z" fill="#A3A4A4"/>
<path d="M645 365.5C621.8 361.1 601.667 385.333 594.5 398L607.5 417C606.5 428 605.1 450.5 607.5 452.5C609.39 454.075 623.396 464.644 634.472 472.971C628.624 465.536 627.88 454.448 628.5 448.5C628.333 441.333 631.7 424.3 646.5 413.5C665 400 676 394.5 691 398C703 400.8 701 402.167 698.5 402.5L709 412.5C707.8 406.1 694.167 395.833 687.5 391.5C683 384.667 668.2 369.9 645 365.5Z" fill="#A3A4A4"/>
<path d="M638.5 496C637.835 498.8 652.556 509.5 660 514.5L670.5 540.5V554L682.167 566.5C675.833 553.5 683 537 684.5 531C685.7 526.2 700 512 707 505.5C717.498 501.417 738.176 495.37 746.669 499.545L724.5 480.323L702 460.5L696 463.5L668 488L658.823 487.36L640 496H638.5Z" fill="#A3A4A4"/>
<path d="M528.5 400C528.086 401.49 527.582 403.423 527.07 405.561M527.07 405.561C525.52 412.036 523.899 420.392 524.5 424C524.703 425.218 524.679 426.519 524.5 427.856M527.07 405.561L526.5 401C529.333 398.5 535.7 392.5 538.5 388.5C542 383.5 564.5 382.5 567 382.5C569 382.5 586.833 394.833 595.5 401M527.07 405.561L528.5 417L541.819 401.779M595.5 401C607.5 408.5 607.5 422.5 605.5 443C603.5 463.5 568.5 486.5 560.5 489.5C552.5 492.5 528.5 493 519.5 482C510.5 471 518 447 519.5 442.5C520.695 438.914 523.796 433.105 524.5 427.856M595.5 401C583.5 393.5 541.5 410 538.5 414C536.1 417.2 528.167 424.571 524.5 427.856M541.819 401.779L542.5 401L544 400.783M541.819 401.779L531.5 406V401L541 392.5L562 388.5L582 396H577L544.393 400.726M541.819 401.779L544 400.886M544 400.783L544.393 400.726M544 400.783V397.5L564.5 392.5L544.393 400.726M544 400.783V400.886M544.393 400.726L544 400.886M544 400.886V403.5L550 406M649 513.439C647.765 512.775 646.434 512.128 645 511.5C625.8 503.1 617.333 489 615.5 483L646.5 508M649 513.439L626 516.5C615.5 521.167 593.7 533.7 590.5 546.5C587.3 559.3 589.167 569.5 590.5 573L555 516.5V500L596.5 464L606.5 469.5L646.5 508M649 513.439C651.557 514.814 653.701 516.261 655.5 517.757M646.5 508L655.5 517.757M555 493C551.833 496.333 545.9 504.4 547.5 510C549.5 517 565.5 547 575 559.5C584.5 572 599.5 587.5 604 589.5C608.5 591.5 635 589 643.5 580.5C652 572 666 555 665 546.5C664.184 539.56 667.367 527.62 655.5 517.757M709 412.5C707.8 406.1 694.167 395.833 687.5 391.5C683 384.667 668.2 369.9 645 365.5C621.8 361.1 601.667 385.333 594.5 398L607.5 417C606.5 428 605.1 450.5 607.5 452.5C609.39 454.075 623.396 464.644 634.472 472.971M709 412.5C710.5 420.5 710 452 691 465C673.561 476.932 661.176 484.231 646.5 480.323M709 412.5L698.5 402.5C701 402.167 703 400.8 691 398C676 394.5 665 400 646.5 413.5C631.7 424.3 628.333 441.333 628.5 448.5C627.88 454.448 628.624 465.536 634.472 472.971M642.5 479C640.234 477.3 637.459 475.217 634.472 472.971M642.5 479C639.114 477.666 636.489 475.536 634.472 472.971M642.5 479C643.855 479.534 645.187 479.973 646.5 480.323M646.5 480.323C644.11 484.382 639.165 493.2 638.5 496M638.5 496C637.835 498.8 652.556 509.5 660 514.5L670.5 540.5V554L682.167 566.5M638.5 496H640L658.823 487.36M749.5 502C756 512.5 768.5 528 740 562.5C717.2 590.1 693.5 578.333 684.5 569L682.167 566.5M749.5 502L746.669 499.545M749.5 502C748.849 500.949 747.884 500.142 746.669 499.545M682.167 566.5C675.833 553.5 683 537 684.5 531C685.7 526.2 700 512 707 505.5C717.498 501.417 738.176 495.37 746.669 499.545M746.669 499.545L724.5 480.323L702 460.5L696 463.5L668 488L658.823 487.36M658.823 487.36L670.5 482L646.5 486.5L658.823 487.36Z" stroke="#A3A4A4" stroke-width="8"/>
<path d="M724.5 317.5C756.833 322.667 820.8 354.5 818 440.5C814.5 548 736.5 600 670.5 643C604.5 686 502 653.5 483.5 618C465 582.5 463 566.5 461.5 557" stroke="#F3CE78" stroke-width="4"/>
<path d="M463.5 572L453 526C448.5 507.667 440.1 464.8 442.5 440C445.5 409 470 364 482.5 353.5C495 343 515.5 303.5 566.5 297C617.5 290.5 610 294.5 631 294C652 293.5 663 306 667 305.5C671 305 722 309 727 317.5C732 326 686.5 304 654.5 317.5C622.5 331 553 356 537 386C521 416 474.5 441 469 498C464.6 543.6 463.5 566.333 463.5 572Z" fill="#F3CE78" stroke="#F3CE78" stroke-width="4"/>
<path d="M425.5 152.5C421.5 153.5 372.5 159.5 366 166C360.8 171.2 312.167 259.167 288.5 302.5V325.5L370 422.5H391.5L474.5 275.5L482 272L637 248.5L528.5 148L428 152.5H425.5Z" fill="#F3CE78"/>
<path d="M618 235.5L545 169L377.5 184L464.5 263L618 235.5Z" fill="#C9C9CB"/>
<path d="M377.5 184L302 319L377.5 408.5L385 398L464.5 263L377.5 184Z" fill="#C9C9CB"/>
<path d="M377.5 184L545 169L618 235.5L464.5 263M377.5 184L302 319L377.5 408.5L385 398L464.5 263M377.5 184L464.5 263" stroke="#C9C9CB" stroke-width="8"/>
<path d="M382 414C383.6 410 440.667 313.333 469 265.5L627 242" stroke="#6B6A6A" stroke-width="4"/>
<path d="M594 210C590.5 214.333 579 224 561 228C543 232 517.5 235.667 507 237L469 234.5L439.5 230L432 228L400 200L461.5 221L553 197.5L594 210Z" fill="#6B6A6A"/>
<path d="M461.5 182C466.5 180.5 477.4 178.7 481 183.5C485.5 189.5 484 193 479.5 193C475 193 456 184 460.5 182C464.1 180.4 471.333 182.333 474.5 183.5L477 187L478.5 188.5M594 210C590.5 214.333 579 224 561 228C543 232 517.5 235.667 507 237L469 234.5L439.5 230L432 228L400 200L461.5 221L553 197.5L594 210Z" stroke="#6B6A6A" stroke-width="8"/>
<path d="M520 148.5C496 143.667 441.2 137.9 414 153.5C380 173 385.5 181.5 397 193C406.2 202.2 441.167 213.5 457.5 218C476.977 221.73 516.308 226.696 541.5 222.138C546.703 221.196 551.303 219.849 555 218C572.544 209.228 610.354 192.645 597.101 175.521C596.101 174.46 594.951 173.297 593.639 172C583.957 163.924 561.888 155.838 520 148.5Z" fill="#A3A4A4"/>
<path d="M541.5 222.138C516.308 226.696 476.977 221.73 457.5 218C441.167 213.5 406.2 202.2 397 193C385.5 181.5 380 173 414 153.5C441.2 137.9 496 143.667 520 148.5C561.888 155.838 583.957 163.924 593.639 172M541.5 222.138C546.703 221.196 551.303 219.849 555 218C572.544 209.228 610.354 192.645 597.101 175.521M541.5 222.138C559 219.925 595 212.4 599 200C603.46 186.175 605.357 184.283 597.101 175.521M593.639 172C594.951 173.297 596.101 174.46 597.101 175.521M593.639 172C595.048 173.175 596.194 174.349 597.101 175.521M593.639 200L585.5 206" stroke="#A3A4A4" stroke-width="8"/>
<line x1="374.632" y1="423.776" x2="303.632" y2="477.776" stroke="#A3A4A4" stroke-width="12"/>
<line x1="336.426" y1="505.925" x2="313.426" y2="521.925" stroke="#A3A4A4" stroke-width="12"/>
<path d="M368.46 417.902L300.46 465.902M331.348 511.918L270.348 423.918M275.509 423.149L255.476 439.108M330.33 506.14L295.254 534.085" stroke="#C9C9CB" stroke-width="10.586"/>
<line x1="267.474" y1="429.303" x2="326.474" y2="515.303" stroke="#C9C9CB" stroke-width="6"/>
<line x1="334.73" y1="510.304" x2="272.73" y2="422.304" stroke="#C9C9CB" stroke-width="8"/>
<line x1="626.6" y1="180.2" x2="710.6" y2="243.2" stroke="#A3A4A4" stroke-width="12"/>
<line x1="736.539" y1="226.091" x2="708.539" y2="249.091" stroke="#A3A4A4" stroke-width="8"/>
<line x1="652.174" y1="160.864" x2="624.174" y2="183.864" stroke="#A3A4A4" stroke-width="10"/>
<line x1="672.184" y1="215.855" x2="626.184" y2="253.855" stroke="#A3A4A4" stroke-width="10"/>
<line x1="616.92" y1="248.061" x2="671.92" y2="205.061" stroke="#C9C9CB" stroke-width="10"/>
<line x1="628.6" y1="173.2" x2="716.6" y2="239.2" stroke="#C9C9CB" stroke-width="12"/>
<path d="M0 589.5L121 503.5L246.5 417L333 547.5L194.5 648L56.5 749L0 589.5Z" fill="#37679A"/>
<path d="M621 154.5L849.5 0.5L1004 75L755 250L621 154.5Z" fill="#37679A"/>
<line x1="195.306" y1="648.32" x2="122.306" y2="499.32" stroke="#C9C9CB" stroke-width="6"/>
<line x1="738.551" y1="72.4323" x2="882.551" y2="159.432" stroke="#C9C9CB" stroke-width="6"/>
</svg>
